<!DOCTYPE svg PUBLIC "-//W3C//DTD SVG 1.1//EN" "http://www.w3.org/Graphics/SVG/1.1/DTD/svg11.dtd">
<!-- Uploaded to: SVG Repo, www.svgrepo.com, Transformed by: SVG Repo Mixer Tools -->
<svg fill="#ffade1" width="800px" height="800px" viewBox="-6 0 32 32" version="1.1" xmlns="http://www.w3.org/2000/svg">
<g id="SVGRepo_bgCarrier" stroke-width="0"/>
<g id="SVGRepo_tracerCarrier" stroke-linecap="round" stroke-linejoin="round"/>
<g id="SVGRepo_iconCarrier"> <title>slide-h</title> <path d="M11.64 6.28c-0.32 0.32-0.32 0.84 0 1.2l5.44 5.44h-16.2c-0.48 0-0.84 0.36-0.84 0.84s0.36 0.84 0.84 0.84h18.2c0.92 0 1.2-0.72 0.56-1.36l-6.88-6.88c-0.28-0.4-0.8-0.4-1.12-0.080zM0.96 17.36c-0.92 0-1.32 0.72-0.56 1.48v0l6.84 6.84c0.32 0.32 0.84 0.32 1.2 0 0.16-0.16 0.24-0.36 0.24-0.6s-0.080-0.44-0.24-0.6l-5.44-5.44h16.2c0.48 0 0.84-0.36 0.84-0.84s-0.36-0.84-0.84-0.84h-18.24z"/> </g>
</svg>